<?xml version="1.0" standalone="no"?>
<!DOCTYPE svg PUBLIC "-//W3C//DTD SVG 20010904//EN"
 "http://www.w3.org/TR/2001/REC-SVG-20010904/DTD/svg10.dtd">
<svg version="1.0" xmlns="http://www.w3.org/2000/svg"
 width="512.000000pt" height="512.000000pt" viewBox="0 0 512.000000 512.000000"
 preserveAspectRatio="xMidYMid meet">

<g transform="translate(0.000000,512.000000) scale(0.100000,-0.100000)"
fill="#000000" stroke="none">
<path d="M2384 5110 c-950 -64 -1797 -665 -2172 -1540 -210 -489 -262 -1048
-146 -1570 241 -1080 1165 -1889 2274 -1989 872 -80 1731 305 2267 1014 347
459 532 1050 510 1627 -8 194 -28 332 -74 513 -126 494 -369 913 -725 1250
-437 413 -990 654 -1598 695 -158 11 -173 11 -336 0z m1896 -1252 c18 -13 43
-36 54 -51 l21 -28 0 -1219 c0 -1215 0 -1219 -21 -1246 -11 -15 -33 -37 -48
-48 -27 -21 -28 -21 -1714 -23 l-1687 -3 -39 23 c-22 12 -49 35 -60 50 l-21
28 -3 1213 -2 1213 23 34 c12 18 38 44 56 56 l34 23 1687 0 1687 0 33 -22z"/>
<path d="M928 3749 c-38 -28 -53 -87 -34 -133 16 -39 68 -76 106 -76 38 0 90
37 106 76 20 47 4 105 -35 133 -38 28 -107 27 -143 0z"/>
<path d="M2491 2413 c-107 -362 -196 -666 -199 -675 -4 -16 5 -18 84 -18 l89
0 194 658 c107 361 196 665 199 675 4 15 -5 17 -84 17 l-89 0 -194 -657z"/>
<path d="M2992 2763 l3 -95 343 -146 c188 -81 341 -151 339 -157 -2 -5 -156
-75 -343 -155 l-339 -146 -3 -93 c-2 -73 0 -92 10 -88 7 2 208 94 446 203
l433 198 -3 84 -3 84 -443 203 -443 203 3 -95z"/>
<path d="M1672 2647 l-432 -202 2 -79 3 -78 439 -204 c241 -112 440 -204 442
-204 2 0 4 42 4 93 l-1 92 -336 147 c-186 80 -339 150 -340 155 -1 4 149 74
335 155 l337 146 3 91 c2 69 0 91 -10 90 -7 0 -208 -92 -446 -202z"/>
</g>
</svg>
