<?xml version="1.0" standalone="no"?>
<!DOCTYPE svg PUBLIC "-//W3C//DTD SVG 20010904//EN"
 "http://www.w3.org/TR/2001/REC-SVG-20010904/DTD/svg10.dtd">
<svg version="1.0" xmlns="http://www.w3.org/2000/svg"
 width="512.000000pt" height="512.000000pt" viewBox="0 0 512.000000 512.000000"
 preserveAspectRatio="xMidYMid meet">
<metadata>
Created by potrace 1.14, written by Peter Selinger 2001-2017
</metadata>
<g transform="translate(0.000000,512.000000) scale(0.100000,-0.100000)"
fill="#000000" stroke="none">
<path d="M2330 5110 c-890 -86 -1671 -622 -2060 -1415 -161 -327 -236 -606
-262 -973 -24 -335 30 -719 147 -1038 54 -147 184 -404 271 -534 259 -388 614
-697 1029 -896 172 -82 292 -126 477 -174 212 -54 331 -71 563 -77 288 -8 514
21 782 98 864 249 1548 959 1766 1834 59 237 72 348 72 625 0 280 -12 381 -75
627 -51 197 -94 313 -190 508 -134 272 -293 489 -517 705 -208 202 -386 327
-648 455 -250 123 -480 195 -750 236 -151 23 -462 32 -605 19z m1959 -1259
c18 -13 42 -42 52 -65 18 -39 19 -92 19 -1226 l0 -1186 -22 -44 c-17 -33 -35
-51 -68 -67 l-44 -23 -1667 0 -1666 0 -44 23 c-31 16 -51 36 -67 67 l-22 45 2
1201 3 1201 27 35 c56 74 -98 68 1778 65 l1685 -2 34 -24z"/>
<path d="M953 3765 c-36 -16 -73 -68 -73 -103 0 -90 99 -149 179 -107 31 15
61 69 61 107 0 36 -37 88 -75 104 -42 17 -51 17 -92 -1z"/>
<path d="M1647 3749 c-39 -30 -53 -85 -34 -132 17 -40 68 -77 107 -77 39 0 90
37 107 77 32 78 -20 153 -107 153 -33 0 -55 -6 -73 -21z"/>
<path d="M2627 2888 c-58 -197 -333 -1129 -343 -1160 -5 -16 4 -18 90 -18 53
0 96 2 96 5 0 5 371 1267 396 1348 5 15 -4 17 -89 17 l-94 0 -56 -192z"/>
<path d="M1685 2655 l-440 -205 -3 -82 -3 -83 441 -205 c243 -113 446 -206
451 -208 5 -2 9 38 9 95 l0 98 -183 79 c-413 180 -498 219 -490 227 4 4 157
73 338 152 l330 144 3 97 c1 53 -1 96 -5 96 -4 0 -206 -92 -448 -205z"/>
<path d="M2982 2764 l3 -96 340 -145 c187 -80 343 -148 348 -152 4 -4 -150
-75 -343 -157 l-350 -149 0 -97 c0 -54 3 -98 8 -97 4 0 205 91 447 203 l440
202 3 89 3 90 -153 70 c-84 38 -283 129 -442 202 -158 73 -292 133 -298 133
-5 0 -7 -42 -6 -96z"/>
</g>
</svg>
